<?xml version="1.0" standalone="no"?>
<!DOCTYPE svg PUBLIC "-//W3C//DTD SVG 20010904//EN"
 "http://www.w3.org/TR/2001/REC-SVG-20010904/DTD/svg10.dtd">
<svg version="1.0" xmlns="http://www.w3.org/2000/svg"
 width="723.000000pt" height="192.000000pt" viewBox="0 0 723.000000 192.000000"
 preserveAspectRatio="xMidYMid meet">
<metadata>
Created by potrace 1.10, written by Peter Selinger 2001-2011
</metadata>
<g transform="translate(0.000000,192.000000) scale(0.100000,-0.100000)"
fill="#ffffff" stroke="none">
<path d="M1070 1843 c-19 -2 -76 -10 -126 -18 -70 -11 -183 -15 -472 -15 -306
0 -381 -3 -385 -13 -3 -7 -3 -129 -2 -271 3 -212 7 -262 19 -282 21 -30 20
-58 -1 -91 -22 -33 -31 -284 -13 -353 6 -25 15 -64 20 -87 5 -23 14 -50 19
-60 5 -10 19 -43 31 -73 63 -158 221 -317 385 -389 28 -13 64 -29 82 -37 17
-8 40 -14 51 -14 12 0 23 -4 26 -9 4 -5 30 -12 59 -16 28 -4 57 -11 63 -16 11
-9 286 -30 294 -22 10 9 7 858 -3 871 -5 6 -22 12 -38 12 -28 0 -59 24 -89 70
-8 13 -23 30 -32 39 -10 8 -18 21 -18 29 0 7 -7 15 -15 18 -8 4 -15 11 -15 16
0 16 -253 263 -302 295 -23 15 -47 33 -51 40 -4 7 -14 13 -22 13 -8 0 -18 6
-22 14 -4 7 -18 18 -30 25 -13 6 -23 16 -23 21 0 12 44 13 68 1 9 -4 33 -15
52 -23 19 -9 52 -23 72 -32 20 -9 43 -22 50 -29 7 -6 30 -20 49 -30 20 -11 51
-32 68 -48 18 -16 36 -29 41 -29 4 0 10 -7 14 -15 3 -8 12 -15 19 -15 15 0
127 -113 127 -127 0 -5 13 -22 29 -39 15 -16 38 -45 50 -64 l21 -35 2 260 c4
458 3 516 -7 524 -5 3 -26 5 -45 4z m-467 -952 c4 -4 11 -65 16 -137 5 -71 14
-141 21 -156 18 -38 8 -54 -42 -66 -49 -13 -146 -82 -174 -124 -11 -15 -23
-28 -29 -27 -24 1 -165 220 -165 257 -1 10 -7 28 -15 42 -8 14 -14 40 -15 58
0 18 -4 41 -9 50 -5 9 -12 36 -16 59 -6 38 -4 44 14 51 25 9 403 3 414 -7z
m439 1 c5 -5 9 -80 9 -168 l1 -159 -168 0 -169 0 -17 105 c-16 98 -23 221 -14
231 8 8 349 0 358 -9z m-1 -420 c4 -4 9 -78 11 -164 3 -127 1 -158 -10 -163
-7 -3 -39 -2 -70 1 -57 7 -112 41 -112 70 0 7 -4 14 -9 16 -13 5 -81 135 -81
155 0 10 -7 29 -16 41 -8 12 -13 30 -10 40 5 15 20 17 148 14 79 -2 146 -6
149 -10z m-367 -14 c12 -47 41 -125 50 -137 13 -16 32 -49 44 -76 6 -11 19
-28 31 -39 11 -10 18 -23 15 -27 -8 -14 -48 -10 -70 6 -10 8 -29 15 -41 15
-12 0 -34 6 -50 14 -15 8 -46 23 -68 33 -22 11 -64 34 -92 52 -52 32 -53 33
-36 55 19 25 80 71 128 97 37 20 84 24 89 7z"/>
<path d="M1207 1833 c-7 -12 -7 -152 -1 -204 l5 -36 107 -11 c106 -10 178 -24
217 -42 11 -5 43 -18 70 -30 28 -11 57 -25 65 -30 8 -6 22 -13 30 -17 45 -20
170 -126 221 -187 65 -78 134 -204 145 -263 4 -21 13 -51 21 -66 l14 -28 127
3 127 3 3 38 c3 36 -8 82 -45 182 -20 54 -55 129 -63 135 -3 3 -17 23 -30 45
-13 22 -29 46 -35 54 -16 23 -167 174 -195 196 -99 77 -255 164 -354 196 -33
11 -76 25 -95 31 -76 24 -324 47 -334 31z"/>
<path d="M1221 1431 c-9 -6 -15 -38 -18 -103 -5 -111 -3 -114 82 -128 82 -13
142 -46 205 -110 40 -41 59 -71 71 -110 25 -80 17 -83 -170 -81 -173 3 -194
-3 -189 -52 l3 -32 353 -3 c278 -2 352 0 353 10 4 47 -5 148 -16 173 -7 17
-16 43 -20 59 -10 45 -71 134 -138 199 -71 69 -110 95 -192 126 -33 13 -68 27
-78 32 -40 21 -221 36 -246 20z"/>
<path d="M4980 1255 c-14 -8 -38 -14 -53 -15 -50 0 -186 -124 -187 -169 0 -8
-7 -22 -15 -31 -18 -20 -23 -155 -8 -217 18 -74 64 -127 147 -170 46 -23 55
-24 145 -19 53 4 127 8 164 9 47 2 71 7 77 17 6 8 10 48 10 88 l0 72 -30 0
c-18 0 -42 -11 -62 -28 -54 -47 -81 -62 -108 -62 -14 0 -31 -5 -37 -11 -8 -8
-17 -8 -31 0 -11 6 -36 11 -56 11 -52 0 -117 68 -134 142 -52 226 225 391 394
236 17 -15 30 -18 58 -12 l37 6 -3 71 -3 70 -72 -2 c-49 -2 -81 3 -102 13 -37
20 -98 20 -131 1z"/>
<path d="M2850 1242 c-20 -7 -10 -64 15 -88 21 -19 25 -30 20 -56 -3 -18 -10
-96 -15 -173 -12 -172 -15 -181 -51 -194 -25 -9 -29 -15 -29 -50 l0 -40 111 1
c94 1 112 4 120 19 15 29 11 60 -10 66 -11 3 -22 10 -24 16 -9 24 24 385 37
406 4 6 15 11 26 11 10 0 21 7 24 16 8 22 8 64 -1 65 -23 3 -215 3 -223 1z"/>
<path d="M3702 1241 c-8 -5 -16 -56 -22 -157 -6 -82 -14 -183 -19 -224 -4 -41
-8 -106 -7 -145 l1 -70 44 0 c50 0 57 8 66 77 6 47 6 47 60 62 29 9 60 16 69
16 27 0 86 -68 86 -100 0 -52 8 -60 60 -60 58 0 63 10 54 92 -6 52 -12 64 -50
104 -47 48 -53 64 -29 84 22 19 75 152 75 189 0 7 -22 11 -54 11 -58 0 -65 -8
-81 -87 -11 -55 -140 -162 -165 -137 -5 5 -4 73 3 171 6 89 9 164 6 166 -10 9
-85 16 -97 8z"/>
<path d="M3375 1100 c-27 -5 -91 -6 -141 -3 -64 4 -93 2 -98 -6 -7 -11 -37
-319 -40 -406 l-1 -40 59 -3 c69 -4 76 3 76 67 0 25 5 70 10 100 6 31 14 80
18 110 l7 54 55 18 c70 23 99 23 128 -1 23 -19 24 -24 18 -112 -3 -51 -8 -126
-12 -165 l-6 -73 65 0 c76 0 73 -3 76 105 1 39 6 86 12 106 5 20 10 68 10 107
1 57 -3 77 -19 100 -34 47 -101 60 -217 42z"/>
<path d="M4303 1100 c-77 -11 -83 -14 -83 -48 0 -44 11 -52 55 -42 46 11 129
13 163 4 16 -5 22 -14 22 -35 0 -33 4 -31 -70 -34 -84 -3 -158 -32 -207 -82
-39 -39 -43 -47 -43 -92 0 -43 5 -55 34 -85 22 -24 43 -36 62 -37 57 -3 110 3
143 17 32 13 36 13 56 -6 22 -21 97 -28 122 -12 7 4 14 46 18 102 3 52 10 127
16 165 10 62 9 75 -7 110 -29 59 -59 76 -145 80 -41 2 -102 0 -136 -5z m141
-233 c16 -12 17 -18 6 -53 -16 -55 -61 -84 -126 -84 -54 0 -74 12 -74 46 0 31
57 83 99 90 20 3 43 7 51 9 8 1 18 3 21 4 3 0 13 -5 23 -12z"/>
<path d="M5545 1093 c-32 -11 -48 -12 -80 -3 -27 8 -49 8 -66 1 -25 -9 -26
-13 -32 -118 -4 -60 -12 -124 -17 -143 -6 -19 -10 -68 -10 -108 0 -66 2 -73
23 -83 15 -7 31 -7 50 0 25 10 27 14 28 76 3 167 15 217 62 264 37 38 44 41
94 41 l54 0 -3 43 c-3 39 -5 42 -33 44 -16 0 -48 -5 -70 -14z"/>
<path d="M5861 1100 c-18 -4 -45 -14 -60 -21 -34 -17 -101 -80 -101 -95 0 -6
-7 -17 -15 -24 -11 -9 -14 -36 -14 -110 0 -97 0 -98 36 -139 50 -59 98 -81
178 -81 104 0 187 52 229 144 57 120 19 271 -78 311 -42 18 -134 26 -175 15z
m110 -80 c38 -11 55 -30 78 -87 26 -63 -28 -175 -105 -218 -63 -36 -152 5
-178 81 -15 44 -15 52 0 108 19 71 51 107 103 117 53 10 62 10 102 -1z"/>
<path d="M6414 1095 c-28 -9 -62 -11 -103 -6 -36 4 -64 4 -68 -2 -9 -14 -22
-119 -32 -262 -6 -71 -15 -145 -20 -164 -6 -18 -10 -53 -9 -76 l1 -44 46 2 46
2 9 53 c9 51 11 53 35 47 15 -3 53 -9 87 -12 54 -5 64 -2 107 25 89 56 126
128 127 245 0 112 -32 170 -109 196 -42 14 -64 13 -117 -4z m105 -101 c17 -22
21 -41 21 -103 0 -43 -5 -82 -11 -88 -6 -6 -16 -22 -23 -34 -6 -13 -27 -34
-46 -47 -40 -27 -74 -24 -121 9 -28 20 -29 23 -29 107 0 68 4 93 19 115 28 43
70 65 123 66 39 1 50 -3 67 -25z"/>
<path d="M6824 1095 c-22 -9 -55 -31 -73 -49 -27 -28 -33 -41 -33 -80 0 -54
22 -82 87 -110 124 -54 125 -54 125 -84 0 -59 -66 -83 -151 -56 -30 9 -58 21
-63 25 -19 18 -26 8 -26 -36 0 -36 3 -45 18 -45 9 0 26 -7 36 -15 27 -20 155
-20 182 0 10 8 26 15 35 15 19 0 62 45 84 89 13 27 14 38 5 61 -19 46 -53 71
-162 119 -51 22 -75 64 -47 82 14 8 26 10 139 13 54 1 55 2 58 32 4 38 -3 41
-100 48 -52 4 -85 1 -114 -9z"/>
<path d="M1283 704 c-12 -5 -11 -33 8 -183 10 -84 -2 -112 -44 -104 -27 5 -50
-18 -45 -44 3 -15 17 -19 80 -23 87 -7 118 -25 118 -70 0 -45 -32 -64 -113
-68 -40 -3 -75 -9 -79 -16 -11 -16 -10 -80 2 -111 l10 -26 290 3 c286 3 290 3
312 26 23 22 23 26 23 285 1 144 -2 271 -6 283 -18 54 -21 54 -292 53 -139 0
-257 -3 -264 -5z m417 -69 c0 -8 -29 -48 -65 -89 -76 -87 -114 -105 -182 -87
-30 8 -47 21 -63 45 -20 33 -20 35 -3 72 27 56 73 72 206 73 88 1 107 -2 107
-14z"/>
<path d="M1885 700 c-4 -6 3 -37 14 -70 12 -33 21 -69 21 -80 0 -31 23 -99 35
-103 5 -1 49 -1 97 1 l87 3 6 47 c4 26 11 58 16 72 5 14 10 50 12 80 l2 55
-142 3 c-91 2 -144 -1 -148 -8z"/>
<path d="M1985 388 c-90 -49 -110 -164 -41 -229 46 -43 99 -55 148 -33 63 28
88 66 88 130 0 68 -10 87 -60 119 -42 27 -100 32 -135 13z"/>
</g>
</svg>
