<?xml version="1.0" standalone="no"?>
<!DOCTYPE svg PUBLIC "-//W3C//DTD SVG 20010904//EN"
 "http://www.w3.org/TR/2001/REC-SVG-20010904/DTD/svg10.dtd">
<svg version="1.0" xmlns="http://www.w3.org/2000/svg"
 width="732.000000pt" height="210.000000pt" viewBox="0 0 732.000000 210.000000"
 preserveAspectRatio="xMidYMid meet">
<metadata>
Created by potrace 1.10, written by Peter Selinger 2001-2011
</metadata>
<g transform="translate(0.000000,210.000000) scale(0.100000,-0.100000)"
fill="#ffffff" stroke="none">
<path d="M1282 1959 c-17 -7 -19 -18 -20 -116 -1 -59 2 -113 6 -119 4 -6 54
-16 112 -21 106 -11 196 -29 215 -43 6 -4 22 -10 37 -14 15 -3 50 -20 78 -36
28 -17 53 -30 56 -30 14 0 159 -117 194 -158 50 -56 130 -175 130 -192 0 -6 6
-24 14 -38 8 -15 23 -54 33 -87 l19 -60 129 0 130 0 -2 59 c-1 33 -7 64 -13
70 -5 5 -10 19 -10 30 0 12 -7 34 -15 50 -8 15 -15 34 -15 42 0 14 -39 95 -50
104 -3 3 -17 23 -30 45 -121 199 -399 397 -660 470 -93 26 -310 54 -338 44z"/>
<path d="M1035 1948 c-19 -7 -185 -12 -450 -15 -231 -2 -426 -6 -434 -9 -11
-4 -13 -49 -9 -262 4 -217 8 -264 23 -300 17 -42 17 -45 0 -80 -22 -48 -32
-262 -16 -342 7 -30 16 -77 21 -104 5 -27 14 -54 20 -60 5 -5 10 -17 10 -25 0
-28 72 -157 123 -220 52 -64 124 -128 203 -179 10 -6 30 -17 44 -22 14 -6 41
-18 60 -27 19 -9 42 -19 50 -23 20 -9 111 -36 190 -56 49 -12 297 -36 307 -30
5 3 5 71 4 452 l-1 421 -38 6 c-30 5 -44 16 -76 59 -22 29 -45 57 -53 61 -7 4
-13 14 -13 21 0 16 -255 276 -316 324 -23 18 -47 32 -53 32 -6 0 -11 4 -11 8
0 9 -76 62 -88 62 -4 0 -12 12 -19 26 -12 25 -11 26 15 19 30 -7 88 -31 112
-46 8 -5 22 -12 30 -15 40 -16 100 -50 100 -56 0 -5 6 -8 13 -8 14 0 90 -53
132 -92 17 -16 33 -28 38 -28 13 0 108 -93 122 -120 7 -14 22 -34 32 -45 20
-22 54 -72 65 -95 6 -14 12 378 9 645 l-1 130 -57 2 c-32 1 -71 -3 -88 -9z
m-373 -936 c5 -5 13 -68 17 -139 5 -72 14 -140 21 -152 17 -34 3 -59 -39 -71
-47 -13 -121 -61 -168 -111 l-37 -39 -44 47 c-54 60 -152 258 -152 308 0 13
-7 49 -15 80 -8 31 -12 62 -9 70 4 10 28 15 82 18 123 5 334 -1 344 -11z m437
4 c5 -6 11 -83 12 -171 l2 -160 -170 -3 -169 -2 -17 104 c-16 99 -23 227 -12
238 11 11 344 6 354 -6z m-129 -420 c63 2 120 0 127 -4 8 -5 13 -58 15 -165 3
-180 8 -171 -85 -163 -36 2 -56 11 -78 32 -16 15 -29 34 -29 41 0 7 -4 13 -9
13 -11 0 -51 66 -51 84 0 8 -7 19 -15 26 -8 7 -15 24 -15 37 0 14 -7 37 -16
53 -22 37 -13 63 18 51 13 -4 75 -7 138 -5z m-229 -41 c9 -45 64 -154 105
-207 32 -42 34 -49 18 -55 -10 -3 -30 1 -46 10 -17 9 -44 17 -63 17 -18 0 -38
7 -45 15 -7 8 -21 15 -31 15 -10 0 -20 4 -24 9 -3 5 -29 21 -58 35 -28 13 -63
33 -76 44 l-23 19 53 51 c30 28 61 52 70 52 8 0 24 7 35 15 10 8 32 14 49 12
24 -2 30 -8 36 -32z"/>
<path d="M1277 1553 c-11 -10 -8 -211 3 -218 5 -3 35 -10 66 -15 81 -13 141
-46 204 -110 40 -41 59 -71 71 -110 25 -79 14 -85 -149 -81 -191 4 -223 -6
-208 -64 l6 -25 351 0 351 0 -4 89 c-2 49 -9 95 -15 103 -5 7 -13 28 -16 46
-12 63 -101 178 -201 261 -35 28 -131 77 -172 87 -16 4 -34 11 -40 16 -7 5
-58 13 -115 18 -128 12 -124 11 -132 3z"/>
<path d="M5030 1375 c-14 -8 -36 -15 -50 -15 -14 0 -51 -22 -85 -49 -45 -36
-69 -65 -95 -117 -33 -65 -35 -74 -34 -165 0 -87 3 -101 26 -136 41 -61 72
-90 128 -118 50 -25 58 -26 154 -20 56 3 129 6 164 5 58 -1 63 1 72 25 6 15
10 55 10 91 l0 64 -33 0 c-23 0 -41 -8 -58 -26 -49 -53 -87 -68 -169 -68 -116
0 -167 39 -196 147 -16 60 -1 134 39 192 79 116 243 140 338 49 21 -20 35 -25
65 -22 l39 3 5 68 c3 37 4 71 2 77 -2 5 -30 7 -65 3 -44 -4 -76 -1 -110 11
-58 20 -114 20 -147 1z"/>
<path d="M2910 1362 c-6 -2 -10 -19 -10 -37 0 -25 6 -38 21 -46 21 -11 22 -15
15 -158 -4 -80 -13 -173 -19 -206 -10 -50 -16 -60 -37 -65 -21 -5 -25 -12 -28
-48 l-3 -42 111 2 c95 1 112 4 121 19 12 23 12 59 0 59 -40 0 -44 58 -20 265
21 188 18 175 44 175 12 0 26 7 29 16 8 22 8 64 -1 64 -58 3 -215 4 -223 2z"/>
<path d="M3749 1338 c-1 -39 -17 -246 -30 -399 -6 -81 -9 -154 -6 -163 7 -18
58 -22 88 -6 14 8 19 22 19 53 0 23 4 48 8 54 8 13 94 43 124 43 31 0 88 -67
88 -103 0 -50 11 -59 66 -55 l49 3 -1 55 c-1 30 -2 62 -3 72 0 9 -21 37 -46
62 -25 26 -45 51 -45 56 0 5 13 28 29 52 25 38 38 74 58 156 5 21 2 22 -51 22
l-55 0 -17 -57 c-22 -75 -43 -105 -104 -142 -65 -40 -100 -25 -79 34 4 12 10
80 14 153 l8 132 -57 0 c-51 0 -56 -2 -57 -22z"/>
<path d="M3445 1219 c-27 -4 -93 -5 -146 -2 -68 4 -98 2 -103 -6 -7 -10 -37
-325 -40 -411 l-1 -35 59 -3 c68 -4 76 3 76 65 0 39 11 126 28 227 7 37 10 40
62 57 70 23 99 23 129 -1 25 -22 25 -37 5 -277 l-6 -73 66 0 c36 0 66 1 67 3
2 4 20 222 25 302 4 67 2 85 -14 111 -31 48 -93 61 -207 43z"/>
<path d="M4363 1219 c-77 -10 -83 -13 -83 -47 0 -44 11 -53 50 -42 38 11 149
13 174 4 16 -6 23 -63 9 -65 -5 -1 -33 -3 -63 -4 -86 -4 -158 -33 -207 -82
-39 -38 -43 -47 -43 -91 0 -93 80 -145 186 -122 26 6 56 16 67 22 17 9 24 7
38 -11 13 -16 28 -21 66 -21 26 0 53 4 60 8 7 4 14 48 18 112 3 58 10 133 16
166 23 151 -63 203 -288 173z m145 -235 c14 -25 -6 -86 -36 -108 -32 -24 -125
-34 -147 -16 -39 33 15 114 84 126 20 3 41 7 46 9 24 8 45 4 53 -11z"/>
<path d="M5628 1220 c-20 -12 -80 -14 -124 -5 -61 13 -70 -1 -78 -122 -3 -60
-11 -124 -16 -143 -6 -19 -10 -67 -10 -107 0 -81 13 -98 68 -87 l29 6 6 106
c8 149 22 197 72 238 30 24 52 33 85 36 l45 3 0 40 c0 37 -2 40 -30 42 -16 2
-38 -2 -47 -7z"/>
<path d="M5902 1216 c-62 -20 -106 -53 -141 -107 -29 -45 -31 -53 -31 -142 0
-90 1 -96 30 -133 49 -60 100 -84 181 -84 103 0 174 41 235 135 15 24 19 49
19 127 0 92 -1 98 -31 135 -16 21 -48 47 -70 58 -49 24 -136 29 -192 11z m166
-93 c11 -10 28 -39 36 -65 14 -43 14 -51 -3 -101 -31 -90 -75 -127 -153 -127
-98 0 -141 67 -121 187 10 53 17 70 44 94 30 26 39 29 105 29 54 0 77 -4 92
-17z"/>
<path d="M6473 1215 c-25 -12 -46 -13 -95 -6 -54 8 -65 7 -76 -7 -7 -10 -11
-28 -9 -41 3 -13 -2 -46 -9 -75 -8 -28 -14 -83 -14 -121 0 -39 -7 -102 -15
-140 -8 -39 -15 -91 -15 -117 l0 -48 48 0 48 0 10 53 c10 58 -2 54 126 41 53
-6 62 -4 107 25 27 18 58 44 67 59 49 72 54 90 54 185 0 88 -2 96 -30 135 -16
23 -39 46 -50 52 -34 18 -112 21 -147 5z m102 -102 c22 -25 25 -36 25 -104 0
-56 -4 -80 -15 -89 -8 -7 -15 -18 -15 -25 0 -7 -14 -25 -31 -39 -39 -33 -98
-35 -140 -5 -28 20 -29 23 -29 101 0 96 16 136 68 166 53 31 105 29 137 -5z"/>
<path d="M6885 1215 c-22 -9 -54 -30 -72 -47 -29 -28 -33 -38 -33 -82 0 -40 5
-55 23 -71 33 -31 74 -55 92 -55 9 0 34 -9 55 -20 33 -17 40 -26 40 -49 0 -16
-7 -37 -16 -45 -22 -22 -97 -20 -164 4 -30 11 -56 20 -57 20 -2 0 -3 -20 -3
-44 0 -42 1 -44 43 -60 113 -43 256 -3 306 85 25 46 25 47 8 85 -20 43 -61 74
-140 105 -65 26 -77 36 -77 64 0 29 21 35 128 35 l82 0 0 34 c0 41 -10 46
-105 52 -47 3 -83 -1 -110 -11z"/>
<path d="M1343 822 c-8 -5 -7 -45 2 -132 12 -112 11 -127 -3 -143 -9 -10 -23
-15 -34 -11 -23 7 -48 -12 -48 -36 0 -23 20 -30 83 -30 69 0 117 -28 117 -68
0 -45 -31 -66 -108 -70 -37 -2 -73 -9 -81 -15 -17 -15 -10 -115 10 -128 8 -6
133 -8 295 -7 261 3 283 4 303 22 20 19 21 27 21 301 0 267 -1 282 -20 303
-20 21 -27 21 -273 21 -140 -1 -259 -4 -264 -7z m417 -66 c0 -8 -18 -36 -41
-63 -22 -26 -51 -60 -63 -75 -53 -62 -166 -58 -206 6 -20 33 -20 35 -3 72 27
56 73 72 206 73 87 1 107 -2 107 -13z"/>
<path d="M1945 821 c-3 -5 1 -29 9 -53 8 -24 17 -59 21 -78 3 -19 11 -54 18
-78 l12 -43 94 3 94 3 14 60 c28 123 35 166 29 180 -4 12 -31 15 -145 15 -77
0 -142 -4 -146 -9z"/>
<path d="M2045 508 c-40 -22 -65 -52 -76 -91 -14 -53 -3 -92 38 -138 32 -35
40 -39 83 -39 95 0 150 50 150 137 0 67 -10 86 -60 118 -42 27 -100 32 -135
13z"/>
<path d="M2374 296 c-3 -8 4 -25 15 -37 l21 -23 0 37 c0 27 -4 37 -15 37 -9 0
-18 -7 -21 -14z"/>
</g>
</svg>
