<?xml version="1.0" standalone="no"?>
<!DOCTYPE svg PUBLIC "-//W3C//DTD SVG 20010904//EN"
 "http://www.w3.org/TR/2001/REC-SVG-20010904/DTD/svg10.dtd">
<svg version="1.0" xmlns="http://www.w3.org/2000/svg"
 width="720.000000pt" height="210.000000pt" viewBox="0 0 720.000000 210.000000"
 preserveAspectRatio="xMidYMid meet">
<metadata>
Created by potrace 1.10, written by Peter Selinger 2001-2011
</metadata>
<g transform="translate(0.000000,210.000000) scale(0.100000,-0.100000)"
fill="#0055b9" stroke="none">
<path d="M1247 1928 c-12 -6 -15 -31 -16 -115 0 -60 3 -113 7 -119 4 -6 47
-14 96 -18 189 -15 339 -72 486 -185 137 -105 232 -242 287 -416 l19 -60 133
-3 134 -3 -7 63 c-3 34 -11 67 -16 72 -6 6 -10 22 -10 36 0 14 -7 35 -15 46
-8 10 -15 25 -15 32 0 16 -40 105 -49 112 -4 3 -18 23 -31 45 -107 175 -365
373 -580 443 -115 38 -172 52 -204 52 -17 0 -47 4 -66 9 -53 14 -136 19 -153
9z"/>
<path d="M1000 1918 c-20 -6 -212 -13 -460 -17 l-425 -6 1 -260 c0 -224 3
-266 18 -306 17 -44 17 -48 1 -80 -23 -43 -32 -260 -16 -339 7 -30 16 -77 21
-104 5 -27 14 -54 20 -60 5 -5 10 -17 10 -26 0 -26 65 -145 114 -209 74 -95
149 -155 270 -215 109 -53 197 -83 306 -104 54 -11 282 -32 288 -27 2 2 4 729
2 866 0 4 -17 9 -38 12 -30 5 -44 16 -76 59 -22 29 -45 57 -53 61 -7 4 -13 14
-13 22 0 40 -422 425 -466 425 -12 0 -34 29 -34 45 0 12 64 -7 125 -38 33 -16
79 -39 103 -51 23 -11 42 -24 42 -28 0 -5 5 -8 11 -8 14 0 120 -73 143 -99 11
-11 24 -21 30 -21 14 0 91 -80 131 -135 16 -22 32 -42 35 -45 8 -7 44 -62 52
-80 6 -14 12 378 9 645 l-1 130 -57 2 c-32 1 -74 -3 -93 -9z m81 -939 c5 -8 7
-20 4 -27 -3 -8 -5 -79 -5 -158 l0 -144 -167 2 -168 3 -13 70 c-15 80 -27 238
-19 257 7 20 355 17 368 -3z m-446 1 c4 -6 9 -54 11 -108 3 -53 12 -126 21
-161 15 -61 15 -65 -2 -78 -11 -7 -27 -13 -36 -13 -33 0 -173 -101 -184 -132
-4 -10 -12 -18 -18 -17 -15 0 -83 89 -115 149 -56 106 -70 140 -83 210 -4 25
-12 65 -17 89 -6 25 -8 51 -5 58 7 17 418 19 428 3z m445 -570 c3 -85 2 -160
-3 -167 -5 -7 -29 -9 -70 -6 -57 4 -65 8 -101 46 -21 23 -43 51 -48 62 -5 11
-20 40 -33 65 -13 25 -24 54 -24 65 -1 11 -8 31 -17 43 -30 43 -17 48 142 47
l149 0 5 -155z m-374 133 c29 -92 87 -209 123 -247 11 -12 21 -25 21 -29 0
-13 -56 -7 -76 8 -10 8 -30 15 -42 15 -21 0 -49 11 -102 41 -8 5 -31 16 -50
24 -19 9 -52 28 -74 43 l-38 26 53 49 c88 80 172 112 185 70z"/>
<path d="M1251 1521 c-10 -7 -13 -33 -12 -107 1 -55 6 -102 10 -107 4 -4 34
-12 65 -17 83 -13 143 -45 206 -110 40 -41 59 -71 71 -110 25 -80 16 -85 -163
-81 -154 3 -198 -6 -198 -38 0 -53 -15 -51 361 -51 l349 0 0 78 c0 49 -6 87
-15 106 -8 15 -15 34 -15 42 0 34 -71 143 -132 206 -77 77 -118 105 -203 137
-33 13 -68 27 -78 32 -10 5 -61 14 -115 19 -119 12 -114 12 -131 1z"/>
<path d="M4850 1315 c-14 -8 -36 -14 -49 -15 -48 0 -181 -126 -181 -171 0 -7
-8 -21 -17 -31 -25 -27 -24 -198 1 -250 24 -50 90 -113 144 -139 41 -18 57
-20 146 -14 56 3 129 6 163 5 76 -1 83 9 83 109 l0 71 -33 0 c-23 0 -41 -8
-58 -26 -49 -53 -87 -68 -169 -68 -117 0 -171 42 -195 149 -33 146 85 295 234
295 53 0 128 -31 149 -61 11 -16 23 -19 55 -17 l42 3 0 75 0 75 -65 -3 c-43
-2 -78 2 -102 12 -46 20 -115 20 -148 1z"/>
<path d="M2730 1302 c-20 -7 -11 -69 12 -84 l22 -15 -11 -179 c-12 -197 -20
-231 -55 -236 -19 -2 -24 -10 -26 -45 l-3 -41 111 -1 c110 0 111 0 120 25 15
38 12 55 -9 61 -11 3 -22 10 -24 16 -9 24 23 384 36 405 5 6 16 12 27 12 10 0
21 7 24 16 8 22 8 64 -1 64 -58 3 -215 4 -223 2z"/>
<path d="M3569 1273 c-1 -30 -10 -160 -30 -401 -9 -110 -9 -156 -1 -164 6 -6
27 -8 56 -4 45 7 46 8 46 44 0 69 8 80 65 97 73 21 79 20 119 -19 26 -24 36
-42 36 -64 0 -54 8 -62 60 -62 27 0 52 5 55 10 4 6 3 40 0 76 -7 59 -11 69
-51 110 -24 24 -44 49 -44 54 0 5 13 28 29 52 25 38 38 74 58 156 5 21 2 22
-51 22 l-55 0 -17 -57 c-22 -77 -36 -96 -99 -138 -72 -48 -89 -41 -81 34 3 31
9 107 12 169 l7 112 -57 0 c-54 0 -56 -1 -57 -27z"/>
<path d="M3265 1159 c-27 -4 -90 -5 -140 -3 -49 3 -96 1 -103 -4 -12 -8 -42
-272 -46 -407 l-1 -40 62 -3 c71 -3 67 -8 77 103 14 144 24 217 32 224 14 12
110 41 136 41 13 -1 34 -10 47 -20 25 -22 25 -37 5 -277 l-6 -73 65 0 c75 0
72 -4 76 112 1 43 7 92 12 110 16 57 11 160 -10 194 -29 48 -92 62 -206 43z"/>
<path d="M4183 1159 c-77 -10 -83 -13 -83 -47 0 -44 11 -52 55 -42 46 11 129
13 163 4 16 -5 22 -14 22 -35 0 -16 -3 -29 -7 -30 -5 -1 -33 -2 -63 -4 -86 -4
-158 -33 -207 -82 -38 -38 -43 -47 -43 -89 0 -61 35 -109 89 -124 41 -11 123
0 163 21 18 10 24 8 39 -10 13 -16 28 -21 66 -21 26 0 53 4 60 8 7 4 14 48 18
112 3 58 10 133 16 166 23 152 -62 203 -288 173z m146 -233 c18 -21 -4 -86
-37 -110 -32 -24 -125 -34 -147 -16 -39 33 15 114 84 126 20 3 41 7 46 9 23 8
43 4 54 -9z"/>
<path d="M5448 1160 c-20 -12 -80 -14 -124 -5 -60 13 -70 -2 -78 -117 -4 -57
-11 -121 -16 -143 -5 -22 -10 -72 -10 -112 0 -81 13 -98 68 -87 l29 6 6 101
c9 155 23 202 72 242 30 25 52 34 85 37 l45 3 0 40 c0 37 -2 40 -30 42 -16 2
-38 -2 -47 -7z"/>
<path d="M5740 1161 c-70 -15 -122 -53 -165 -121 -22 -35 -25 -51 -25 -133 0
-90 1 -96 31 -133 46 -58 100 -83 182 -84 101 0 173 41 233 135 15 24 19 49
19 127 0 92 -1 98 -31 135 -53 66 -147 95 -244 74z m113 -82 c38 -10 66 -48
80 -110 7 -28 -22 -116 -50 -149 -68 -81 -214 -60 -236 33 -24 102 26 216 101
228 58 10 65 10 105 -2z"/>
<path d="M6291 1154 c-22 -10 -44 -13 -60 -8 -14 4 -43 8 -64 9 -44 1 -54 -11
-56 -70 0 -22 -5 -56 -11 -75 -5 -19 -10 -71 -10 -115 0 -44 -7 -111 -15 -150
-8 -38 -15 -87 -15 -107 l0 -38 48 0 48 0 10 53 c10 58 -2 54 125 41 53 -6 60
-4 113 30 31 20 56 40 56 45 0 5 6 16 13 23 6 7 20 30 30 51 22 49 24 190 2
233 -40 81 -130 114 -214 78z m104 -101 c22 -25 25 -36 25 -104 0 -56 -4 -80
-15 -89 -8 -7 -15 -18 -15 -25 0 -7 -14 -25 -31 -39 -39 -33 -98 -35 -140 -5
-28 20 -29 24 -29 99 0 51 6 91 16 112 36 76 139 104 189 51z"/>
<path d="M6705 1155 c-22 -9 -54 -30 -72 -47 -29 -28 -33 -38 -33 -83 0 -41 5
-56 23 -71 33 -30 74 -54 92 -54 9 0 34 -9 55 -20 33 -17 40 -26 40 -49 0 -70
-75 -81 -209 -29 -28 11 -27 12 -34 -35 -6 -37 -5 -39 39 -58 70 -29 165 -26
233 9 44 22 60 37 79 75 24 46 24 48 8 85 -19 41 -60 72 -139 103 -65 26 -77
36 -77 65 0 30 25 37 125 38 l80 1 3 31 c4 39 -8 44 -103 50 -47 3 -83 -1
-110 -11z"/>
<path d="M1313 792 c-8 -5 -8 -40 2 -132 16 -139 12 -154 -41 -155 -30 0 -50
-24 -41 -49 5 -12 20 -16 69 -16 80 0 128 -26 128 -67 0 -16 -4 -33 -8 -40
-12 -19 -60 -33 -116 -33 -28 0 -57 -5 -64 -12 -15 -15 -16 -77 -2 -113 l10
-26 290 3 c274 3 291 4 309 23 11 11 20 27 21 35 1 8 2 135 1 281 -1 250 -2
266 -21 286 -19 21 -28 22 -273 22 -139 0 -258 -3 -264 -7z m414 -69 c2 -6
-17 -35 -42 -65 -25 -29 -54 -63 -65 -75 -47 -57 -166 -49 -203 14 -18 31 -18
34 -1 69 27 56 75 73 203 71 69 -1 106 -6 108 -14z"/>
<path d="M1917 787 c-3 -7 1 -31 9 -52 7 -22 17 -61 20 -88 4 -26 11 -50 15
-53 5 -3 9 -16 9 -30 l0 -25 97 3 97 3 14 60 c27 122 34 166 28 180 -7 21
-281 22 -289 2z"/>
<path d="M2003 470 c-82 -50 -92 -154 -21 -227 27 -28 39 -33 78 -33 54 0 101
21 130 57 25 32 28 127 5 160 -42 59 -132 80 -192 43z"/>
<path d="M2345 270 c-5 -8 21 -60 31 -60 2 0 4 16 4 35 0 34 -20 49 -35 25z"/>
</g>
</svg>
